<?xml version="1.0" encoding="utf-8"?>
<!-- Generator: Adobe Illustrator 19.2.0, SVG Export Plug-In . SVG Version: 6.00 Build 0)  -->
<svg version="1.1" id="Слой_1" xmlns="http://www.w3.org/2000/svg" xmlns:xlink="http://www.w3.org/1999/xlink" x="0px" y="0px"
	 viewBox="0 0 75.1 72" style="enable-background:new 0 0 75.1 72;" xml:space="preserve">
<style type="text/css">
	.st0{fill:#E6E6E6;}
	.st1{fill:#455560;}
	.st2{fill:#D75A4A;}
	.st3{fill:#38454F;}
	.st4{fill:#72EDF7;}
</style>
<path class="st0" d="M34,42.3H5.1c-3.5,0-5.9-3.5-4.8-6.9c2-6.2,4.3-10.4,10.7-10.4h17.2c6.4,0,8.7,4.2,10.7,10.4
	C40,38.8,37.5,42.3,34,42.3L34,42.3z M34,42.3"/>
<path class="st1" d="M39.1,37.8c-0.4,2.4-2.4,4.5-5,4.5H5.1c-2.6,0-4.7-2-5-4.5c0,0-0.1,0-0.1,0.1v25.9C0,68.4,3.7,72,8.2,72h22.7
	c4.5,0,8.2-3.7,8.2-8.2L39.1,37.8C39.1,37.9,39.1,37.8,39.1,37.8L39.1,37.8z M39.1,37.8"/>
<path class="st2" d="M28.2,33.7c0,2.2-3.8,3.9-8.6,3.9c-4.8,0-8.6-1.7-8.6-3.9c0-2.2,3.8-3.9,8.6-3.9C24.3,29.8,28.2,31.5,28.2,33.7
	L28.2,33.7z M28.2,33.7"/>
<path class="st0" d="M52.8,17.3H23.9c-3.5,0-5.9-3.5-4.8-6.9C21.1,4.2,23.4,0,29.7,0h17.2c6.4,0,8.7,4.2,10.7,10.4
	C58.7,13.8,56.3,17.3,52.8,17.3L52.8,17.3z M52.8,17.3"/>
<path class="st2" d="M46.9,8.7c0,2.2-3.9,3.9-8.6,3.9c-4.8,0-8.6-1.7-8.6-3.9c0-2.2,3.9-3.9,8.6-3.9C43.1,4.7,46.9,6.5,46.9,8.7
	L46.9,8.7z M46.9,8.7"/>
<path class="st0" d="M74.8,35.4c-2-6.2-7.4-10.4-13.8-10.4H42.3c-5.1,0-2.9,2.7-4.7,6.9c0.5,1.1,0.9,2.2,1.3,3.5c0.7,2,0,4-1.3,5.4
	c0.9,0.9,2.1,1.5,3.5,1.5H70C73.5,42.3,75.9,38.8,74.8,35.4L74.8,35.4z M74.8,35.4"/>
<path class="st1" d="M75,37.8c-0.4,2.4-2.4,4.5-5,4.5H41.1c-0.7,0-1.4-0.2-2-0.4v21.9c0,1.8-0.6,3.4-1.6,4.8
	c1.5,2.1,3.9,3.4,6.6,3.4h22.7c4.5,0,8.2-3.7,8.2-8.2L75,37.8C75.1,37.9,75.1,37.8,75,37.8L75,37.8z M75,37.8"/>
<path class="st3" d="M28.2,25.1c5.1,0,7.6,2.7,9.4,6.9c1.8-4.2-0.4-6.9,4.7-6.9h15.6V12.9c0,0,0-0.1-0.1-0.1c-0.4,2.4-2.4,4.5-5,4.5
	H23.9c-2.6,0-4.7-2-5-4.5c0,0-0.1,0-0.1,0.1v12.2H28.2z M28.2,25.1"/>
<path class="st2" d="M64.2,33.7c0,2.2-3.9,3.9-8.6,3.9c-4.8,0-8.6-1.7-8.6-3.9c0-2.2,3.9-3.9,8.6-3.9C60.3,29.8,64.2,31.5,64.2,33.7
	L64.2,33.7z M64.2,33.7"/>
<path class="st4" d="M7.8,67.3c-0.9,0-1.6-0.7-1.6-1.6v-9.4c0-0.9,0.7-1.6,1.6-1.6c0.9,0,1.6,0.7,1.6,1.6v9.4
	C9.4,66.6,8.7,67.3,7.8,67.3L7.8,67.3z M7.8,67.3"/>
<path class="st4" d="M7.8,53.2c-0.9,0-1.6-0.7-1.6-1.6V47c0-0.9,0.7-1.6,1.6-1.6c0.9,0,1.6,0.7,1.6,1.6v4.7
	C9.4,52.5,8.7,53.2,7.8,53.2L7.8,53.2z M7.8,53.2"/>
<path class="st4" d="M46.9,67.3c-0.9,0-1.6-0.7-1.6-1.6v-9.4c0-0.9,0.7-1.6,1.6-1.6c0.9,0,1.6,0.7,1.6,1.6v9.4
	C48.5,66.6,47.8,67.3,46.9,67.3L46.9,67.3z M46.9,67.3"/>
<path class="st4" d="M46.9,53.2c-0.9,0-1.6-0.7-1.6-1.6V47c0-0.9,0.7-1.6,1.6-1.6c0.9,0,1.6,0.7,1.6,1.6v4.7
	C48.5,52.5,47.8,53.2,46.9,53.2L46.9,53.2z M46.9,53.2"/>
</svg>
