<svg xmlns="http://www.w3.org/2000/svg" width="34" height="25" viewBox="0 0 34 25">
  <metadata><?xpacket begin="﻿" id="W5M0MpCehiHzreSzNTczkc9d"?>
<x:xmpmeta xmlns:x="adobe:ns:meta/" x:xmptk="Adobe XMP Core 5.6-c142 79.160924, 2017/07/13-01:06:39        ">
   <rdf:RDF xmlns:rdf="http://www.w3.org/1999/02/22-rdf-syntax-ns#">
      <rdf:Description rdf:about=""/>
   </rdf:RDF>
</x:xmpmeta>
                                                                                                    
                                                                                                    
                                                                                                    
                                                                                                    
                                                                                                    
                                                                                                    
                                                                                                    
                                                                                                    
                                                                                                    
                                                                                                    
                                                                                                    
                                                                                                    
                                                                                                    
                                                                                                    
                                                                                                    
                                                                                                    
                                                                                                    
                                                                                                    
                                                                                                    
                                                                                                    
                           
<?xpacket end="w"?></metadata>
<defs>
    <style>
      .cls-1 {
        fill: #2b2c2c;
        fill-rule: evenodd;
      }
    </style>
  </defs>
  <path id="Forma_1" data-name="Forma 1" class="cls-1" d="M1324.85,33.265a1.146,1.146,0,0,0-1.02-.623h-31.66a1.146,1.146,0,0,0-1.02.623,1.121,1.121,0,0,0,.09,1.193l1.34,1.883A3.973,3.973,0,0,0,1295.81,38h24.38a3.973,3.973,0,0,0,3.23-1.658l1.35-1.883A1.141,1.141,0,0,0,1324.85,33.265Zm-1.66-1.813a15.5,15.5,0,0,0-12.53-15.19,2.768,2.768,0,0,0,.02-0.286,2.98,2.98,0,0,0-5.96,0,2.788,2.788,0,0,0,.03.286,15.5,15.5,0,0,0-12.54,15.191v0.6h30.98v-0.6Zm-17.27-15.374c0-.034-0.01-0.069-0.01-0.1a1.79,1.79,0,0,1,3.58,0v0.1l-0.09-.007c-0.2-.023-0.41-0.039-0.62-0.053-0.07-.005-0.15-0.013-0.22-0.017-0.29-.016-0.57-0.025-0.86-0.025s-0.57.009-.85,0.024c-0.08,0-.15.012-0.23,0.017-0.21.014-.41,0.031-0.62,0.053Zm-4.07,5.029a11.916,11.916,0,0,0-5.48,8.071,0.59,0.59,0,0,1-.58.488,0.569,0.569,0,0,1-.11-0.01,0.6,0.6,0,0,1-.48-0.692,13.12,13.12,0,0,1,6.04-8.882A0.6,0.6,0,0,1,1301.85,21.107Zm5.85-1.56h-0.01a12,12,0,0,0-2.63.291,0.575,0.575,0,0,1-.13.014,0.595,0.595,0,0,1-.13-1.175,13.147,13.147,0,0,1,2.89-.32A0.6,0.6,0,1,1,1307.7,19.548Z" transform="translate(-1291 -13)"/>
</svg>
