<?xml version="1.0" encoding="utf-8"?>
<!-- Generator: Adobe Illustrator 19.2.0, SVG Export Plug-In . SVG Version: 6.00 Build 0)  -->
<svg version="1.1" id="Слой_1" xmlns="http://www.w3.org/2000/svg" xmlns:xlink="http://www.w3.org/1999/xlink" x="0px" y="0px"
	 viewBox="0 0 72.3 72" style="enable-background:new 0 0 72.3 72;" xml:space="preserve">
<style type="text/css">
	.st0{fill:#38454F;}
	.st1{fill:#244C7C;}
	.st2{fill:#E6E6E6;}
	.st3{fill:#BFBDA3;}
	.st4{fill:#6D8C60;}
	.st5{fill:#72EDF7;}
	.st6{fill:#FFFFFF;}
	.st7{fill:#455560;}
	.st8{fill:#D75A4A;}
</style>
<path class="st0" d="M51.8,7.2L68.5,24l-0.7,0.7h4.4V7.2H51.8z M51.8,7.2"/>
<path class="st0" d="M30.1,7.2H8.7C3.9,7.2,0,11.1,0,15.9c0,4.8,3.9,8.7,8.7,8.7H14L13.3,24L30.1,7.2z M30.1,7.2"/>
<path class="st1" d="M20.6,10.3c-0.8,0.1-1.6,0.1-2.4,0.1c-0.7,0-1.2,0.6-1.2,1.3c0,0.7,0.6,1.2,1.2,1.2c0,0,0,0,0,0
	c0.9,0,1.7-0.1,2.5-0.1c0.7,0,1.2-0.6,1.1-1.3C21.9,10.7,21.3,10.2,20.6,10.3L20.6,10.3z M20.6,10.3"/>
<path class="st1" d="M13.2,10.5c-0.9,0-1.7,0.1-2.5,0.1c-0.7,0-1.2,0.6-1.2,1.3c0,0.7,0.6,1.2,1.2,1.2c0,0,0.1,0,0.1,0
	c0.8,0,1.6-0.1,2.5-0.1c0.7,0,1.2-0.6,1.2-1.3C14.5,11.1,13.9,10.6,13.2,10.5L13.2,10.5z M13.2,10.5"/>
<path class="st1" d="M5.4,11.5c-1.1,0.4-2,0.9-2.6,1.5c-0.5,0.5-0.5,1.3,0,1.8C3,15,3.4,15.1,3.7,15.1c0.3,0,0.6-0.1,0.9-0.4
	c0.4-0.4,0.9-0.7,1.7-0.9c0.7-0.2,1-0.9,0.8-1.6C6.8,11.6,6.1,11.3,5.4,11.5L5.4,11.5z M5.4,11.5"/>
<path class="st1" d="M62.3,10.9h-2.5c-0.7,0-1.2,0.6-1.2,1.2c0,0.7,0.6,1.2,1.2,1.2h2.5c0.7,0,1.2-0.6,1.2-1.2
	C63.6,11.5,63,10.9,62.3,10.9L62.3,10.9z M62.3,10.9"/>
<path class="st1" d="M69.8,10.9h-2.5c-0.7,0-1.2,0.6-1.2,1.2c0,0.7,0.6,1.2,1.2,1.2h2.5c0.7,0,1.2-0.6,1.2-1.2
	C71,11.5,70.5,10.9,69.8,10.9L69.8,10.9z M69.8,10.9"/>
<path class="st2" d="M69.2,24.6L44.6,0.1c-0.1-0.1-0.2-0.1-0.2,0L19.8,24.6H69.2z M69.2,24.6"/>
<path class="st3" d="M19.8,24.6L40.9,3.5l-3.4-3.4c-0.1-0.1-0.2-0.1-0.2,0L12.6,24.6H19.8z M19.8,24.6"/>
<path class="st4" d="M59,25.4l0.4-0.4L44.6,10.2c0,0-0.1,0-0.1,0L29.6,25l0.4,0.4H59z M59,25.4"/>
<path class="st5" d="M0,15.9v48.4C0,68.6,3.4,72,7.7,72h64.6V24.6H8.7C3.9,24.6,0,20.7,0,15.9L0,15.9z M0,15.9"/>
<path class="st6" d="M64.8,30.9h-2.5c-0.7,0-1.2-0.6-1.2-1.2c0-0.7,0.6-1.2,1.2-1.2h2.5c0.7,0,1.2,0.6,1.2,1.2
	C66.1,30.3,65.5,30.9,64.8,30.9L64.8,30.9z M57.3,30.9h-2.5c-0.7,0-1.2-0.6-1.2-1.2c0-0.7,0.6-1.2,1.2-1.2h2.5
	c0.7,0,1.2,0.6,1.2,1.2C58.6,30.3,58,30.9,57.3,30.9L57.3,30.9z M49.9,30.9h-2.5c-0.7,0-1.2-0.6-1.2-1.2c0-0.7,0.6-1.2,1.2-1.2h2.5
	c0.7,0,1.2,0.6,1.2,1.2C51.1,30.3,50.5,30.9,49.9,30.9L49.9,30.9z M42.4,30.9h-2.5c-0.7,0-1.2-0.6-1.2-1.2c0-0.7,0.6-1.2,1.2-1.2
	h2.5c0.7,0,1.2,0.6,1.2,1.2C43.6,30.3,43.1,30.9,42.4,30.9L42.4,30.9z M34.9,30.9h-2.5c-0.7,0-1.2-0.6-1.2-1.2
	c0-0.7,0.6-1.2,1.2-1.2h2.5c0.7,0,1.2,0.6,1.2,1.2C36.1,30.3,35.6,30.9,34.9,30.9L34.9,30.9z M27.4,30.9h-2.5
	c-0.7,0-1.2-0.6-1.2-1.2c0-0.7,0.6-1.2,1.2-1.2h2.5c0.7,0,1.2,0.6,1.2,1.2C28.7,30.3,28.1,30.9,27.4,30.9L27.4,30.9z M19.9,30.9
	h-2.5c-0.7,0-1.2-0.6-1.2-1.2c0-0.7,0.6-1.2,1.2-1.2h2.5c0.7,0,1.2,0.6,1.2,1.2C21.2,30.3,20.6,30.9,19.9,30.9L19.9,30.9z
	 M12.5,30.9H10c-0.7,0-1.2-0.6-1.2-1.2c0-0.7,0.6-1.2,1.2-1.2h2.5c0.7,0,1.2,0.6,1.2,1.2C13.7,30.3,13.2,30.9,12.5,30.9L12.5,30.9z
	 M5.1,30.1c-0.2,0-0.4,0-0.5-0.1c-0.9-0.4-1.7-0.9-2.4-1.5c-0.5-0.5-0.6-1.2-0.1-1.8c0.5-0.5,1.2-0.6,1.8-0.1
	C4.4,27,5,27.4,5.6,27.7c0.6,0.3,0.9,1,0.6,1.7C6,29.8,5.6,30.1,5.1,30.1L5.1,30.1z M5.1,30.1"/>
<path class="st6" d="M64.8,68.3h-2.5c-0.7,0-1.2-0.6-1.2-1.2c0-0.7,0.6-1.2,1.2-1.2h2.5c0.7,0,1.2,0.6,1.2,1.2
	C66.1,67.7,65.5,68.3,64.8,68.3L64.8,68.3z M57.3,68.3h-2.5c-0.7,0-1.2-0.6-1.2-1.2c0-0.7,0.6-1.2,1.2-1.2h2.5
	c0.7,0,1.2,0.6,1.2,1.2C58.6,67.7,58,68.3,57.3,68.3L57.3,68.3z M49.9,68.3h-2.5c-0.7,0-1.2-0.6-1.2-1.2c0-0.7,0.6-1.2,1.2-1.2h2.5
	c0.7,0,1.2,0.6,1.2,1.2C51.1,67.7,50.5,68.3,49.9,68.3L49.9,68.3z M42.4,68.3h-2.5c-0.7,0-1.2-0.6-1.2-1.2c0-0.7,0.6-1.2,1.2-1.2
	h2.5c0.7,0,1.2,0.6,1.2,1.2C43.6,67.7,43.1,68.3,42.4,68.3L42.4,68.3z M34.9,68.3h-2.5c-0.7,0-1.2-0.6-1.2-1.2
	c0-0.7,0.6-1.2,1.2-1.2h2.5c0.7,0,1.2,0.6,1.2,1.2C36.1,67.7,35.6,68.3,34.9,68.3L34.9,68.3z M27.4,68.3h-2.5
	c-0.7,0-1.2-0.6-1.2-1.2c0-0.7,0.6-1.2,1.2-1.2h2.5c0.7,0,1.2,0.6,1.2,1.2C28.7,67.7,28.1,68.3,27.4,68.3L27.4,68.3z M19.9,68.3
	h-2.5c-0.7,0-1.2-0.6-1.2-1.2c0-0.7,0.6-1.2,1.2-1.2h2.5c0.7,0,1.2,0.6,1.2,1.2C21.2,67.7,20.6,68.3,19.9,68.3L19.9,68.3z
	 M12.5,68.3H10c-0.7,0-1.2-0.6-1.2-1.2c0-0.7,0.6-1.2,1.2-1.2h2.5c0.7,0,1.2,0.6,1.2,1.2C13.7,67.7,13.2,68.3,12.5,68.3L12.5,68.3z
	 M5.1,67.5c-0.2,0-0.4,0-0.5-0.1c-0.9-0.4-1.7-0.9-2.4-1.5c-0.5-0.5-0.6-1.2-0.1-1.8c0.5-0.5,1.2-0.6,1.8-0.1
	c0.5,0.5,1.1,0.9,1.8,1.1c0.6,0.3,0.9,1,0.6,1.7C6,67.2,5.6,67.5,5.1,67.5L5.1,67.5z M5.1,67.5"/>
<path class="st7" d="M72.3,56h-15c-4.1,0-7.5-3.3-7.5-7.5c0-4.1,3.3-7.5,7.5-7.5h15V56z M72.3,56"/>
<path class="st0" d="M72.3,54.6h-15c-4.1,0-7.5-3.3-7.5-7.5c0-4.1,3.3-7.5,7.5-7.5h15V54.6z M72.3,54.6"/>
<path class="st8" d="M62.3,47.1c0,2.1-1.7,3.7-3.7,3.7c-2.1,0-3.7-1.7-3.7-3.7c0-2.1,1.7-3.7,3.7-3.7C60.6,43.3,62.3,45,62.3,47.1
	L62.3,47.1z M62.3,47.1"/>
</svg>
