<svg xmlns="http://www.w3.org/2000/svg" width="24" height="22" viewBox="0 0 24 22">
  <metadata><?xpacket begin="﻿" id="W5M0MpCehiHzreSzNTczkc9d"?>
<x:xmpmeta xmlns:x="adobe:ns:meta/" x:xmptk="Adobe XMP Core 5.6-c142 79.160924, 2017/07/13-01:06:39        ">
   <rdf:RDF xmlns:rdf="http://www.w3.org/1999/02/22-rdf-syntax-ns#">
      <rdf:Description rdf:about=""/>
   </rdf:RDF>
</x:xmpmeta>
                                                                                                    
                                                                                                    
                                                                                                    
                                                                                                    
                                                                                                    
                                                                                                    
                                                                                                    
                                                                                                    
                                                                                                    
                                                                                                    
                                                                                                    
                                                                                                    
                                                                                                    
                                                                                                    
                                                                                                    
                                                                                                    
                                                                                                    
                                                                                                    
                                                                                                    
                                                                                                    
                           
<?xpacket end="w"?></metadata>
<defs>
    <style>
      .cls-1 {
        fill: #72edf7;
        fill-rule: evenodd;
      }
    </style>
  </defs>
  <path id="Forma_1" data-name="Forma 1" class="cls-1" d="M413.6,121.942l-3.641-3.581v-4.136a1.377,1.377,0,0,0-2.753,0v1.428l-2.711-2.667a3.665,3.665,0,0,0-5.007,0l-9.1,8.953a1.338,1.338,0,0,0,0,1.915,1.393,1.393,0,0,0,1.947,0l9.1-8.953a0.823,0.823,0,0,1,1.114,0l9.1,8.954a1.4,1.4,0,0,0,1.948,0A1.34,1.34,0,0,0,413.6,121.942Zm-11.129-4.468a0.683,0.683,0,0,0-.956,0l-8.007,7.873a0.662,0.662,0,0,0-.2.471v5.742a2.461,2.461,0,0,0,2.481,2.44h3.964v-6.038h4.475V134h3.964a2.461,2.461,0,0,0,2.481-2.44v-5.742a0.659,0.659,0,0,0-.2-0.471Z" transform="translate(-390 -112)"/>
</svg>
