<svg xmlns="http://www.w3.org/2000/svg" width="44.813" height="45" viewBox="0 0 44.813 45">
  <metadata><?xpacket begin="﻿" id="W5M0MpCehiHzreSzNTczkc9d"?>
<x:xmpmeta xmlns:x="adobe:ns:meta/" x:xmptk="Adobe XMP Core 5.6-c142 79.160924, 2017/07/13-01:06:39        ">
   <rdf:RDF xmlns:rdf="http://www.w3.org/1999/02/22-rdf-syntax-ns#">
      <rdf:Description rdf:about=""/>
   </rdf:RDF>
</x:xmpmeta>
                                                                                                    
                                                                                                    
                                                                                                    
                                                                                                    
                                                                                                    
                                                                                                    
                                                                                                    
                                                                                                    
                                                                                                    
                                                                                                    
                                                                                                    
                                                                                                    
                                                                                                    
                                                                                                    
                                                                                                    
                                                                                                    
                                                                                                    
                                                                                                    
                                                                                                    
                                                                                                    
                           
<?xpacket end="w"?></metadata>
<defs>
    <style>
      .cls-1 {
        fill: #87e8fb;
        fill-rule: evenodd;
      }
    </style>
  </defs>
  <path id="Forma_1" data-name="Forma 1" class="cls-1" d="M412.4,1781.03a4.475,4.475,0,1,0,4.456,4.47A4.465,4.465,0,0,0,412.4,1781.03Zm0,0a4.475,4.475,0,1,0,4.456,4.47A4.465,4.465,0,0,0,412.4,1781.03Zm7.424-7.3H404.982a4.315,4.315,0,0,0-4.3,4.32v14.9a4.315,4.315,0,0,0,4.3,4.32h14.846a4.315,4.315,0,0,0,4.3-4.32v-14.9A4.315,4.315,0,0,0,419.828,1773.73Zm-7.424,19.52a7.75,7.75,0,1,1,7.718-7.75A7.744,7.744,0,0,1,412.4,1793.25Zm7.965-13.9a1.83,1.83,0,1,1,1.826-1.83A1.829,1.829,0,0,1,420.369,1779.35Zm-7.965,1.68a4.475,4.475,0,1,0,4.456,4.47A4.465,4.465,0,0,0,412.4,1781.03Zm7.424-7.3H404.982a4.315,4.315,0,0,0-4.3,4.32v14.9a4.315,4.315,0,0,0,4.3,4.32h14.846a4.315,4.315,0,0,0,4.3-4.32v-14.9A4.315,4.315,0,0,0,419.828,1773.73Zm-7.424,19.52a7.75,7.75,0,1,1,7.718-7.75A7.744,7.744,0,0,1,412.4,1793.25Zm7.965-13.9a1.83,1.83,0,1,1,1.826-1.83A1.829,1.829,0,0,1,420.369,1779.35Zm-7.965,1.68a4.475,4.475,0,1,0,4.456,4.47A4.465,4.465,0,0,0,412.4,1781.03ZM390,1763v45h44.809v-45H390Zm37.386,29.95a7.58,7.58,0,0,1-7.558,7.59H404.982a7.58,7.58,0,0,1-7.559-7.59v-14.9a7.58,7.58,0,0,1,7.559-7.59h14.846a7.58,7.58,0,0,1,7.558,7.59v14.9h0Zm-7.558-19.22H404.982a4.315,4.315,0,0,0-4.3,4.32v14.9a4.315,4.315,0,0,0,4.3,4.32h14.846a4.315,4.315,0,0,0,4.3-4.32v-14.9A4.315,4.315,0,0,0,419.828,1773.73Zm-7.424,19.52a7.75,7.75,0,1,1,7.718-7.75A7.744,7.744,0,0,1,412.4,1793.25Zm7.965-13.9a1.83,1.83,0,1,1,1.826-1.83A1.829,1.829,0,0,1,420.369,1779.35Zm-7.965,1.68a4.475,4.475,0,1,0,4.456,4.47A4.465,4.465,0,0,0,412.4,1781.03Zm0,0a4.475,4.475,0,1,0,4.456,4.47A4.465,4.465,0,0,0,412.4,1781.03Zm0,0a4.475,4.475,0,1,0,4.456,4.47A4.465,4.465,0,0,0,412.4,1781.03Zm7.424-7.3H404.982a4.315,4.315,0,0,0-4.3,4.32v14.9a4.315,4.315,0,0,0,4.3,4.32h14.846a4.315,4.315,0,0,0,4.3-4.32v-14.9A4.315,4.315,0,0,0,419.828,1773.73Zm-7.424,19.52a7.75,7.75,0,1,1,7.718-7.75A7.744,7.744,0,0,1,412.4,1793.25Zm7.965-13.9a1.83,1.83,0,1,1,1.826-1.83A1.829,1.829,0,0,1,420.369,1779.35Zm-7.965,1.68a4.475,4.475,0,1,0,4.456,4.47A4.465,4.465,0,0,0,412.4,1781.03Zm0,0a4.475,4.475,0,1,0,4.456,4.47A4.465,4.465,0,0,0,412.4,1781.03Zm0,0a4.475,4.475,0,1,0,4.456,4.47A4.465,4.465,0,0,0,412.4,1781.03Zm7.424-7.3H404.982a4.315,4.315,0,0,0-4.3,4.32v14.9a4.315,4.315,0,0,0,4.3,4.32h14.846a4.315,4.315,0,0,0,4.3-4.32v-14.9A4.315,4.315,0,0,0,419.828,1773.73Zm-7.424,19.52a7.75,7.75,0,1,1,7.718-7.75A7.744,7.744,0,0,1,412.4,1793.25Zm7.965-13.9a1.83,1.83,0,1,1,1.826-1.83A1.829,1.829,0,0,1,420.369,1779.35Zm-7.965,1.68a4.475,4.475,0,1,0,4.456,4.47A4.465,4.465,0,0,0,412.4,1781.03Z" transform="translate(-390 -1763)"/>
</svg>
