<svg xmlns="http://www.w3.org/2000/svg" width="28" height="21" viewBox="0 0 28 21">
  <metadata><?xpacket begin="﻿" id="W5M0MpCehiHzreSzNTczkc9d"?>
<x:xmpmeta xmlns:x="adobe:ns:meta/" x:xmptk="Adobe XMP Core 5.6-c142 79.160924, 2017/07/13-01:06:39        ">
   <rdf:RDF xmlns:rdf="http://www.w3.org/1999/02/22-rdf-syntax-ns#">
      <rdf:Description rdf:about=""/>
   </rdf:RDF>
</x:xmpmeta>
                                                                                                    
                                                                                                    
                                                                                                    
                                                                                                    
                                                                                                    
                                                                                                    
                                                                                                    
                                                                                                    
                                                                                                    
                                                                                                    
                                                                                                    
                                                                                                    
                                                                                                    
                                                                                                    
                                                                                                    
                                                                                                    
                                                                                                    
                                                                                                    
                                                                                                    
                                                                                                    
                           
<?xpacket end="w"?></metadata>
<defs>
    <style>
      .cls-1 {
        fill: #72edf7;
        fill-rule: evenodd;
      }
    </style>
  </defs>
  <path class="cls-1" d="M524.283,112h0a1,1,0,0,0-.7.285,0.974,0.974,0,0,0-.295.7v14.749a1,1,0,0,0,1,.983c2.332,0.006,6.24.483,8.935,3.252V116.532a0.923,0.923,0,0,0-.138-0.5C530.872,112.537,526.621,112.005,524.283,112Zm20.433,15.732V112.983a0.97,0.97,0,0,0-.295-0.7,1,1,0,0,0-.7-0.285h0c-2.338,0-6.589.537-8.8,4.034a0.923,0.923,0,0,0-.138.5v15.435c2.695-2.769,6.6-3.246,8.935-3.252A1,1,0,0,0,544.716,127.732ZM547,115.4h-0.726v12.331a2.54,2.54,0,0,1-2.555,2.51c-1.979.005-5.24,0.384-7.55,2.531a24.546,24.546,0,0,1,10.607.2,1.014,1.014,0,0,0,.849-0.191,0.968,0.968,0,0,0,.377-0.768V116.384A0.994,0.994,0,0,0,547,115.4Zm-25.27,12.331V115.4H521a0.993,0.993,0,0,0-1,.983v15.631a0.97,0.97,0,0,0,.376.768,1.014,1.014,0,0,0,.85.19,24.561,24.561,0,0,1,10.607-.2c-2.31-2.146-5.572-2.525-7.55-2.53A2.539,2.539,0,0,1,521.728,127.732Z" transform="translate(-520 -112)"/>
</svg>
