<?xml version="1.0" encoding="utf-8"?>
<!-- Generator: Adobe Illustrator 19.2.0, SVG Export Plug-In . SVG Version: 6.00 Build 0)  -->
<svg version="1.1" id="Слой_1" xmlns="http://www.w3.org/2000/svg" xmlns:xlink="http://www.w3.org/1999/xlink" x="0px" y="0px"
	 viewBox="0 0 63 72" style="enable-background:new 0 0 63 72;" xml:space="preserve">
<style type="text/css">
	.st0{fill:#38454F;}
	.st1{fill:#72EDF7;}
	.st2{fill:#455560;}
	.st3{fill:#FDFBF7;}
</style>
<rect x="4.5" class="st0" width="54" height="20.3"/>
<path class="st1" d="M63,15.7v51.7c0,2.5-2,4.5-4.5,4.5h-54C2,72,0,70,0,67.5V15.7H63z M63,15.7"/>
<path class="st1" d="M4.5,18h6.8V6.8L4.5,0V18z M51.7,6.8V18h6.8V0L51.7,6.8z M51.7,6.8"/>
<path class="st2" d="M11.3,15.7v-9L0,15.7H11.3z M51.7,6.8v9H63L51.7,6.8z M51.7,6.8"/>
<path class="st2" d="M12.4,27c-1.3,0-2.2,0.9-2.2,2.2c0,1.4,0.9,2.2,2.2,2.2s2.2-0.9,2.2-2.2C14.6,27.9,13.7,27,12.4,27L12.4,27z
	 M50.6,27c-1.4,0-2.2,0.9-2.2,2.2c0,1.4,0.9,2.2,2.2,2.2c1.3,0,2.2-0.9,2.2-2.2C52.9,27.9,52,27,50.6,27L50.6,27z M50.6,27"/>
<path class="st2" d="M12.4,31.3c1.3,0,1.6,1.6,1.6,1.6c0,10.1,7.6,18.2,17.6,18.2c9.9,0,17.5-8.1,17.5-18.2c0,0,0.2-1.6,1.6-1.6
	c1.4,0,1.6,1.6,1.6,1.6c0,11.9-9,21.4-20.7,21.4c-11.7,0-20.7-9.7-20.7-21.4C10.8,32.9,11,31.3,12.4,31.3L12.4,31.3z M12.4,31.3"/>
<path class="st3" d="M12.4,29c1.3,0,1.6,1.6,1.6,1.6c0,10.1,7.6,18.2,17.6,18.2c9.9,0,17.5-8.1,17.5-18.2c0,0,0.2-1.6,1.6-1.6
	c1.4,0,1.6,1.6,1.6,1.6c0,11.9-9,21.4-20.7,21.4c-11.7,0-20.7-9.7-20.7-21.4C10.8,30.6,11,29,12.4,29L12.4,29z M12.4,29"/>
</svg>
