<svg xmlns="http://www.w3.org/2000/svg" width="27" height="22" viewBox="0 0 27 22">
  <metadata><?xpacket begin="﻿" id="W5M0MpCehiHzreSzNTczkc9d"?>
<x:xmpmeta xmlns:x="adobe:ns:meta/" x:xmptk="Adobe XMP Core 5.6-c142 79.160924, 2017/07/13-01:06:39        ">
   <rdf:RDF xmlns:rdf="http://www.w3.org/1999/02/22-rdf-syntax-ns#">
      <rdf:Description rdf:about=""/>
   </rdf:RDF>
</x:xmpmeta>
                                                                                                    
                                                                                                    
                                                                                                    
                                                                                                    
                                                                                                    
                                                                                                    
                                                                                                    
                                                                                                    
                                                                                                    
                                                                                                    
                                                                                                    
                                                                                                    
                                                                                                    
                                                                                                    
                                                                                                    
                                                                                                    
                                                                                                    
                                                                                                    
                                                                                                    
                                                                                                    
                           
<?xpacket end="w"?></metadata>
<defs>
    <style>
      .cls-1 {
        fill: #72edf7;
        fill-rule: evenodd;
      }
    </style>
  </defs>
  <path class="cls-1" d="M662.394,116.014h0L661.3,115.9v-0.753H637v2.694h23.4v0.9H637v9.428a1.792,1.792,0,0,0,1.288,1.713,1.781,1.781,0,0,0,1.6,1.787l20.782,2.327a1.782,1.782,0,0,0,.193.01,1.8,1.8,0,0,0,1.789-1.61l1.342-14.4A1.8,1.8,0,0,0,662.394,116.014Zm-11.443,6.777a0.449,0.449,0,0,1,.45-0.449h7.2a0.45,0.45,0,0,1,.45.449v4.025a0.45,0.45,0,0,1-.45.449h-7.2a0.449,0.449,0,0,1-.45-0.449v-4.025h0Zm-6.3-2.261h3.6a0.449,0.449,0,1,1,0,.9h-3.6A0.449,0.449,0,1,1,644.65,120.53Zm4.051,2.245a0.449,0.449,0,0,1-.45.449H646.9a0.449,0.449,0,1,1,0-.9h1.35A0.45,0.45,0,0,1,648.7,122.775Zm-9.451-2.245h3.6a0.449,0.449,0,1,1,0,.9h-3.6A0.449,0.449,0,1,1,639.25,120.53Zm-0.45,2.245a0.45,0.45,0,0,1,.45-0.449h5.85a0.449,0.449,0,1,1,0,.9h-5.85A0.449,0.449,0,0,1,638.8,122.775Zm24.3-4.873-1.341,14.4a0.9,0.9,0,0,1-.989.8l-20.782-2.327a0.9,0.9,0,0,1-.8-0.811H659.5a1.8,1.8,0,0,0,1.8-1.8V116.8l1,0.106A0.9,0.9,0,0,1,663.1,117.9Zm-11.244,5.338h6.3v3.127h-6.3V123.24Zm9.45-9.444a1.8,1.8,0,0,0-1.8-1.8H638.8a1.8,1.8,0,0,0-1.8,1.8v0.449h24.3V113.8Z" transform="translate(-637 -112)"/>
</svg>
