<svg xmlns="http://www.w3.org/2000/svg" width="15.562" height="27.438" viewBox="0 0 15.562 27.438">
  <metadata><?xpacket begin="﻿" id="W5M0MpCehiHzreSzNTczkc9d"?>
<x:xmpmeta xmlns:x="adobe:ns:meta/" x:xmptk="Adobe XMP Core 5.6-c142 79.160924, 2017/07/13-01:06:39        ">
   <rdf:RDF xmlns:rdf="http://www.w3.org/1999/02/22-rdf-syntax-ns#">
      <rdf:Description rdf:about=""/>
   </rdf:RDF>
</x:xmpmeta>
                                                                                                    
                                                                                                    
                                                                                                    
                                                                                                    
                                                                                                    
                                                                                                    
                                                                                                    
                                                                                                    
                                                                                                    
                                                                                                    
                                                                                                    
                                                                                                    
                                                                                                    
                                                                                                    
                                                                                                    
                                                                                                    
                                                                                                    
                                                                                                    
                                                                                                    
                                                                                                    
                           
<?xpacket end="w"?></metadata>
<defs>
    <style>
      .cls-1 {
        fill: #72edf7;
        fill-rule: evenodd;
      }
    </style>
  </defs>
  <path id="Forma_1" data-name="Forma 1" class="cls-1" d="M984.274,24.279H972.727a2,2,0,0,0-2,2V49.724a2,2,0,0,0,2,2h11.547a2,2,0,0,0,2-2V26.278A2,2,0,0,0,984.274,24.279Zm-8.623,1.214h5.7a0.577,0.577,0,0,1,0,.963h-5.7A0.576,0.576,0,0,1,975.651,25.493Zm2.85,24.255a1.275,1.275,0,1,1,1.273-1.276A1.277,1.277,0,0,1,978.5,49.748Zm6.273-4.369H972.227V27.652h12.547V45.379Z" transform="translate(-970.719 -24.281)"/>
</svg>
