<svg xmlns="http://www.w3.org/2000/svg" width="28" height="25" viewBox="0 0 28 25">
  <metadata><?xpacket begin="﻿" id="W5M0MpCehiHzreSzNTczkc9d"?>
<x:xmpmeta xmlns:x="adobe:ns:meta/" x:xmptk="Adobe XMP Core 5.6-c142 79.160924, 2017/07/13-01:06:39        ">
   <rdf:RDF xmlns:rdf="http://www.w3.org/1999/02/22-rdf-syntax-ns#">
      <rdf:Description rdf:about=""/>
   </rdf:RDF>
</x:xmpmeta>
                                                                                                    
                                                                                                    
                                                                                                    
                                                                                                    
                                                                                                    
                                                                                                    
                                                                                                    
                                                                                                    
                                                                                                    
                                                                                                    
                                                                                                    
                                                                                                    
                                                                                                    
                                                                                                    
                                                                                                    
                                                                                                    
                                                                                                    
                                                                                                    
                                                                                                    
                                                                                                    
                           
<?xpacket end="w"?></metadata>
<defs>
    <style>
      .cls-1 {
        fill: #fff;
        fill-rule: evenodd;
      }
    </style>
  </defs>
  <path id="Forma_1" data-name="Forma 1" class="cls-1" d="M428,266.726c0.231-4.228-9.125-7.726-14-7.726s-14.228,3.5-14,7.726h0V275.9h0c0,0.064.009,0.127,0.016,0.19C400.541,280.4,409.057,284,414,284s13.459-3.6,13.981-7.912c0.008-.063.012-0.126,0.016-0.19h0v-9.172h0Zm-2.5.149c-0.444,3.545-7.457,6.535-11.52,6.551s-11.053-2.915-11.468-6.457,7.456-6.535,11.52-6.552S425.936,263.329,425.493,266.875Zm-11.48-3.256c-2.046.008-6.007,1.515-5.8,3.3s3.726,3.259,5.771,3.25,5.575-1.512,5.8-3.3S416.058,263.611,414.013,263.619Z" transform="translate(-400 -259)"/>
</svg>
