<svg xmlns="http://www.w3.org/2000/svg" width="29" height="28" viewBox="0 0 29 28">
  <metadata><?xpacket begin="﻿" id="W5M0MpCehiHzreSzNTczkc9d"?>
<x:xmpmeta xmlns:x="adobe:ns:meta/" x:xmptk="Adobe XMP Core 5.6-c142 79.160924, 2017/07/13-01:06:39        ">
   <rdf:RDF xmlns:rdf="http://www.w3.org/1999/02/22-rdf-syntax-ns#">
      <rdf:Description rdf:about=""/>
   </rdf:RDF>
</x:xmpmeta>
                                                                                                    
                                                                                                    
                                                                                                    
                                                                                                    
                                                                                                    
                                                                                                    
                                                                                                    
                                                                                                    
                                                                                                    
                                                                                                    
                                                                                                    
                                                                                                    
                                                                                                    
                                                                                                    
                                                                                                    
                                                                                                    
                                                                                                    
                                                                                                    
                                                                                                    
                                                                                                    
                           
<?xpacket end="w"?></metadata>
<defs>
    <style>
      .cls-1 {
        fill: #fff;
        fill-rule: evenodd;
      }
    </style>
  </defs>
  <path id="Forma_1" data-name="Forma 1" class="cls-1" d="M407.832,217.167c1.874,0,3.771-.7,3.771-2.042s-1.9-2.042-3.771-2.042-3.771.7-3.771,2.042S405.958,217.167,407.832,217.167Zm0-2.917c1.7,0,2.611.621,2.611,0.875s-0.915.875-2.611,0.875-2.611-.621-2.611-0.875S406.136,214.25,407.832,214.25ZM403.481,223a0.582,0.582,0,0,0-.58.583v3.5a0.58,0.58,0,1,0,1.16,0v-3.5A0.582,0.582,0,0,0,403.481,223Zm0-3.5a0.582,0.582,0,0,0-.58.583v1.749a0.58,0.58,0,1,0,1.16,0v-1.749A0.582,0.582,0,0,0,403.481,219.5Zm14.5,3.5a0.582,0.582,0,0,0-.58.583v3.5a0.581,0.581,0,1,0,1.161,0v-3.5A0.582,0.582,0,0,0,417.985,223Zm0-3.5a0.582,0.582,0,0,0-.58.583v1.749a0.581,0.581,0,1,0,1.161,0v-1.749A0.582,0.582,0,0,0,417.985,219.5Zm-3.191-11.667c1.875,0,3.772-.7,3.772-2.041s-1.9-2.042-3.772-2.042-3.771.7-3.771,2.042S412.92,207.833,414.794,207.833Zm0-2.916c1.7,0,2.611.62,2.611,0.875s-0.915.875-2.611,0.875-2.61-.621-2.61-0.875S413.1,204.917,414.794,204.917Zm6.382,12.25c1.875,0,3.772-.7,3.772-2.042s-1.9-2.042-3.772-2.042-3.771.7-3.771,2.042S419.3,217.167,421.176,217.167Zm0-2.917c1.7,0,2.611.621,2.611,0.875s-0.915.875-2.611,0.875-2.61-.621-2.61-0.875S419.481,214.25,421.176,214.25ZM429,216.532a2.565,2.565,0,0,0-.12-0.937,5.947,5.947,0,0,0-5.674-4.262h-0.58v-3.967l-0.008-.167a2.56,2.56,0,0,0-.12-0.937c-0.7-2.157-1.625-4.262-4.514-4.262H411.6c-2.888,0-3.814,2.1-4.514,4.262a2.494,2.494,0,0,0-.118.637l-0.009,0v4.432h-2.321c-2.888,0-3.814,2.106-4.514,4.262a2.539,2.539,0,0,0-.119.637l-0.008,0v10.124A3.636,3.636,0,0,0,403.622,230h8.421a3.594,3.594,0,0,0,2.467-.984,3.607,3.607,0,0,0,2.457.984h8.42a3.636,3.636,0,0,0,3.622-3.642V216.7Zm-5.794-4.032a4.8,4.8,0,0,1,4.571,3.457,1.391,1.391,0,0,1,.056.608l0,0.022c-0.007.046-.02,0.091-0.031,0.136a1.135,1.135,0,0,1-.032.114,1.33,1.33,0,0,1-.057.143,1.488,1.488,0,0,1-.087.155c-0.021.035-.043,0.068-0.067,0.1a1.335,1.335,0,0,1-.164.179c-0.017.016-.036,0.03-0.055,0.046a1.351,1.351,0,0,1-.186.126c-0.017.01-.034,0.02-0.052,0.029a1.277,1.277,0,0,1-.226.084c-0.016,0-.03.011-0.046,0.015a1.282,1.282,0,0,1-.292.035H415.817a1.284,1.284,0,0,1-.152-0.016V216.7l-0.008-.167a2.721,2.721,0,0,0-.007-0.383c0-.024-0.007-0.048-0.01-0.072a2.6,2.6,0,0,0-.1-0.482c-0.124-.383-0.257-0.765-0.406-1.133,0.015-.039.024-0.076,0.037-0.115s0.034-.105.049-0.157c0.024-.084.045-0.164,0.064-0.243,0.01-.045.021-0.089,0.03-0.132,0.018-.087.032-0.168,0.045-0.248,0-.03.011-0.061,0.016-0.091,0.016-.1.028-0.2,0.04-0.291,0.088-.685.088-0.685,0.832-0.685h6.962Zm-15.014-5.876c0.743-2.293,1.476-3.457,3.41-3.457h6.382c1.935,0,2.668,1.164,3.411,3.457a1.388,1.388,0,0,1,.056.608l0,0.023c-0.007.045-.02,0.089-0.031,0.134a1.172,1.172,0,0,1-.032.116,1.315,1.315,0,0,1-.057.142,1.337,1.337,0,0,1-.087.156,1.089,1.089,0,0,1-.067.1,1.271,1.271,0,0,1-.163.179c-0.018.017-.037,0.031-0.055,0.046a1.267,1.267,0,0,1-.186.126l-0.053.029a1.206,1.206,0,0,1-.226.085l-0.045.014a1.3,1.3,0,0,1-.293.035H409.435a1.3,1.3,0,0,1-.293-0.035c-0.017,0-.03-0.01-0.046-0.015a1.31,1.31,0,0,1-.226-0.085c-0.018-.008-0.035-0.018-0.053-0.028a1.214,1.214,0,0,1-.185-0.127c-0.019-.015-0.038-0.029-0.055-0.045a1.393,1.393,0,0,1-.164-0.179c-0.024-.032-0.045-0.066-0.067-0.1a1.321,1.321,0,0,1-.087-0.156c-0.021-.047-0.04-0.094-0.057-0.142s-0.022-.077-0.032-0.116a1.234,1.234,0,0,1-.03-0.134l0-.023A1.4,1.4,0,0,1,408.193,206.624Zm-0.071,2.578c0.031,0.02.064,0.034,0.1,0.052,0.049,0.029.1,0.057,0.151,0.083s0.083,0.038.125,0.056c0.058,0.024.117,0.046,0.177,0.065,0.04,0.014.08,0.027,0.121,0.038,0.069,0.018.139,0.033,0.209,0.045l0.106,0.02a2.545,2.545,0,0,0,.328.023h10.718a2.545,2.545,0,0,0,.328-0.023c0.036,0,.07-0.013.105-0.02,0.071-.012.141-0.027,0.209-0.045,0.041-.011.082-0.024,0.122-0.038,0.06-.019.118-0.042,0.176-0.065s0.085-.036.125-0.056,0.1-.054.152-0.083c0.032-.018.065-0.032,0.095-0.052v2.131h-5.221a4.1,4.1,0,0,0-.536.034c-0.054.008-.1,0.022-0.145,0.031a2.265,2.265,0,0,0-.28.065,1.26,1.26,0,0,0-.134.059,1.532,1.532,0,0,0-.195.092c-0.041.026-.072,0.056-0.109,0.084a1.2,1.2,0,0,0-.137.117,1.145,1.145,0,0,0-.082.1,1.2,1.2,0,0,0-.095.138,1.272,1.272,0,0,0-.06.123,1.539,1.539,0,0,0-.063.156c-0.016.045-.029,0.092-0.041,0.138s-0.03.112-.042,0.171-0.02.1-.028,0.153c0,0.03-.011.057-0.016,0.088-0.081-.109-0.166-0.213-0.256-0.312l-0.007-.007a3.818,3.818,0,0,0-.285-0.284l-0.011-.01a3.893,3.893,0,0,0-.317-0.252l-0.02-.013a3.329,3.329,0,0,0-.346-0.212L413,211.778a3.732,3.732,0,0,0-.368-0.165l-0.061-.024c-0.122-.044-0.25-0.082-0.383-0.116-0.03-.007-0.06-0.017-0.091-0.024-0.13-.029-0.266-0.052-0.406-0.07l-0.113-.017c-0.178-.017-0.363-0.029-0.559-0.029h-2.9V209.2Zm-6.892,6.755c0.744-2.293,1.476-3.457,3.411-3.457h6.382a3.762,3.762,0,0,1,.612.05c0.049,0.007.1,0.018,0.143,0.028a2.8,2.8,0,0,1,.408.116c0.042,0.016.086,0.031,0.128,0.049a2.255,2.255,0,0,1,.385.214c0.022,0.015.047,0.026,0.069,0.042a2.6,2.6,0,0,1,.371.336c0.054,0.059.105,0.129,0.157,0.194s0.119,0.152.175,0.235,0.11,0.175.164,0.268,0.1,0.171.141,0.261,0.1,0.2.151,0.314,0.1,0.234.15,0.359c0.035,0.088.071,0.173,0.107,0.269,0.084,0.228.168,0.466,0.251,0.722a1.379,1.379,0,0,1,.065.362c0,0.022,0,.043,0,0.065a1.337,1.337,0,0,1-.029.289c0,0.016-.007.033-0.011,0.049s0,0.011,0,.016a1.346,1.346,0,0,1-.119.3c0,0.011-.011.021-0.017,0.032a1.378,1.378,0,0,1-.221.292l-0.08.081-0.02.016a1.274,1.274,0,0,1-.186.127,0.521,0.521,0,0,1-.052.028,1.206,1.206,0,0,1-.226.085c-0.016,0-.03.01-0.046,0.015a1.375,1.375,0,0,1-.3.034H402.473a1.313,1.313,0,0,1-.294-0.035c-0.016,0-.03-0.01-0.045-0.015a1.277,1.277,0,0,1-.226-0.084l-0.053-.029a1.284,1.284,0,0,1-.185-0.126c-0.019-.016-0.038-0.03-0.056-0.046a1.392,1.392,0,0,1-.163-0.179c-0.025-.032-0.045-0.066-0.067-0.1a1.419,1.419,0,0,1-.087-0.157c-0.021-.046-0.041-0.094-0.057-0.141s-0.022-.077-0.032-0.116a1.307,1.307,0,0,1-.03-0.135l0-.022A1.42,1.42,0,0,1,401.23,215.957Zm10.812,12.876h-8.42a2.471,2.471,0,0,1-2.462-2.475v-7.822c0.03,0.019.064,0.034,0.095,0.052,0.05,0.029.1,0.057,0.152,0.082s0.083,0.038.125,0.056q0.087,0.036.177,0.066c0.04,0.013.08,0.026,0.121,0.037,0.069,0.019.139,0.033,0.209,0.046,0.036,0.006.07,0.014,0.106,0.019a2.737,2.737,0,0,0,.328.023h10.718a2.545,2.545,0,0,0,.328-0.024c0.036,0,.07-0.013.106-0.019,0.071-.012.14-0.027,0.209-0.045,0.041-.012.081-0.024,0.121-0.038q0.09-.03.177-0.066c0.042-.017.084-0.035,0.125-0.055s0.1-.054.152-0.083c0.031-.018.065-0.033,0.1-0.052v7.824a2.532,2.532,0,0,1-.044.439c-0.011.06-.028,0.118-0.043,0.176-0.019.077-.043,0.152-0.069,0.226s-0.057.149-.092,0.221c-0.021.044-.045,0.085-0.069,0.127a2.729,2.729,0,0,1-.153.252l-0.006.008A2.45,2.45,0,0,1,412.042,228.833Zm15.807-2.475a2.472,2.472,0,0,1-2.463,2.475h-8.419a2.415,2.415,0,0,1-1.743-.736,3.624,3.624,0,0,0,.316-0.805c0.007-.026.013-0.052,0.02-0.077,0.026-.11.047-0.222,0.064-0.335,0-.033.011-0.065,0.015-0.1a3.956,3.956,0,0,0,.026-0.424h0v-7.447c0.05,0,.1.006,0.152,0.006h10.719a2.529,2.529,0,0,0,.327-0.024c0.036,0,.071-0.013.106-0.019,0.071-.012.14-0.027,0.209-0.045,0.041-.012.081-0.024,0.121-0.038q0.09-.03.177-0.066c0.042-.017.084-0.035,0.125-0.055s0.1-.054.152-0.083c0.031-.018.065-0.033,0.1-0.052v7.823h0Z" transform="translate(-400 -202)"/>
</svg>
