<svg xmlns="http://www.w3.org/2000/svg" width="31" height="17" viewBox="0 0 31 17">
  <metadata><?xpacket begin="﻿" id="W5M0MpCehiHzreSzNTczkc9d"?>
<x:xmpmeta xmlns:x="adobe:ns:meta/" x:xmptk="Adobe XMP Core 5.6-c142 79.160924, 2017/07/13-01:06:39        ">
   <rdf:RDF xmlns:rdf="http://www.w3.org/1999/02/22-rdf-syntax-ns#">
      <rdf:Description rdf:about=""/>
   </rdf:RDF>
</x:xmpmeta>
                                                                                                    
                                                                                                    
                                                                                                    
                                                                                                    
                                                                                                    
                                                                                                    
                                                                                                    
                                                                                                    
                                                                                                    
                                                                                                    
                                                                                                    
                                                                                                    
                                                                                                    
                                                                                                    
                                                                                                    
                                                                                                    
                                                                                                    
                                                                                                    
                                                                                                    
                                                                                                    
                           
<?xpacket end="w"?></metadata>
<defs>
    <style>
      .cls-1 {
        fill: #fff;
        fill-rule: evenodd;
      }
    </style>
  </defs>
  <path id="Forma_1" data-name="Forma 1" class="cls-1" d="M428.883,438.718h0a6.851,6.851,0,0,1-.725-0.041,0.246,0.246,0,0,0-.247.089,4.457,4.457,0,0,1-3.967,2.478H407.056a4.507,4.507,0,0,1-3.982-2.505,0.188,0.188,0,0,0-.188-0.066,7.21,7.21,0,0,1-.769.045c-0.157,0-.307-0.007-0.449-0.021s-0.346,0-.346.111A5.141,5.141,0,0,0,406.24,443h18.52a5.208,5.208,0,0,0,4.972-4.2c0.026-.141-0.109-0.138-0.19-0.126A4.423,4.423,0,0,1,428.883,438.718Zm-23.247-10.439a0.187,0.187,0,0,0-.281-0.033c-3.279,1.688-5.354,4.18-5.354,6.96,0,3.559,3.4,2.136,8.374.962a0.192,0.192,0,0,0,.137-0.262Zm11.11-2.085v8.92a0.121,0.121,0,0,0,.127.135,32.93,32.93,0,0,1,5.4.837,0.243,0.243,0,0,0,.289-0.083l3.445-7.352a0.2,0.2,0,0,0-.093-0.263,21.6,21.6,0,0,0-8.961-2.349A0.164,0.164,0,0,0,416.746,426.194Zm-1.151-.022a0.212,0.212,0,0,0-.221-0.173,23.419,23.419,0,0,0-8.541,1.574,0.212,0.212,0,0,0-.134.268l2.977,7.9a0.2,0.2,0,0,0,.258.087,28.426,28.426,0,0,1,5.513-.623c0.037,0,.148,0,0.148-0.1v-8.931h0Zm11.382,3.118c-0.944,1.728-3.3,7.032-3.3,7.032-0.037.08,0.049,0.115,0.094,0.126,4.342,1.088,7.226,2.036,7.226-1.242,0-2.293-1.412-4.389-3.746-6A0.2,0.2,0,0,0,426.977,429.29Z" transform="translate(-400 -426)"/>
</svg>
