<svg xmlns="http://www.w3.org/2000/svg" width="44.812" height="45" viewBox="0 0 44.812 45">
  <metadata><?xpacket begin="﻿" id="W5M0MpCehiHzreSzNTczkc9d"?>
<x:xmpmeta xmlns:x="adobe:ns:meta/" x:xmptk="Adobe XMP Core 5.6-c142 79.160924, 2017/07/13-01:06:39        ">
   <rdf:RDF xmlns:rdf="http://www.w3.org/1999/02/22-rdf-syntax-ns#">
      <rdf:Description rdf:about=""/>
   </rdf:RDF>
</x:xmpmeta>
                                                                                                    
                                                                                                    
                                                                                                    
                                                                                                    
                                                                                                    
                                                                                                    
                                                                                                    
                                                                                                    
                                                                                                    
                                                                                                    
                                                                                                    
                                                                                                    
                                                                                                    
                                                                                                    
                                                                                                    
                                                                                                    
                                                                                                    
                                                                                                    
                                                                                                    
                                                                                                    
                           
<?xpacket end="w"?></metadata>
<defs>
    <style>
      .cls-1 {
        fill: #87e8fb;
        fill-rule: evenodd;
      }
    </style>
  </defs>
  <path class="cls-1" d="M497.191,1415v45H542v-45H497.191Zm33.592,24.9a39.139,39.139,0,0,1,3.039,3.07,8.759,8.759,0,0,1,1.088,1.57,1.132,1.132,0,0,1-.688,1.76H529.7a3.514,3.514,0,0,1-2.879-1.18c-0.623-.64-1.205-1.32-1.807-1.98a4.262,4.262,0,0,0-.811-0.73,0.943,0.943,0,0,0-1.506.37,4.782,4.782,0,0,0-.476,2.12c-0.049,1.07-.37,1.35-1.438,1.4a11.562,11.562,0,0,1-6.467-1.4,14.291,14.291,0,0,1-4.351-4.09,55.422,55.422,0,0,1-5.727-10.25c-0.363-.81-0.1-1.25.788-1.26q2.214-.045,4.426,0a1.3,1.3,0,0,1,1.227.92,27.618,27.618,0,0,0,3,5.58,4.927,4.927,0,0,0,1.133,1.25,0.689,0.689,0,0,0,1.17-.34,3.9,3.9,0,0,0,.259-1.18,17.533,17.533,0,0,0-.071-4.1,1.7,1.7,0,0,0-1.452-1.56c-0.431-.09-0.367-0.24-0.159-0.49a1.628,1.628,0,0,1,1.388-.7h5.106a1.228,1.228,0,0,1,1.1,1.34l0,5.7a1.657,1.657,0,0,0,.72,1.45,1,1,0,0,0,1.021-.5,17.536,17.536,0,0,0,2.875-4.44c0.345-.7.643-1.43,0.933-2.16a1.091,1.091,0,0,1,1.153-.79h4.916a2.133,2.133,0,0,1,.437.03,0.854,0.854,0,0,1,.8,1.31,12.11,12.11,0,0,1-1.954,3.4c-0.821,1.14-1.7,2.24-2.511,3.39C529.8,1438.46,529.855,1438.99,530.783,1439.9Z" transform="translate(-497.188 -1415)"/>
</svg>
